<?xml version="1.0" encoding="UTF-8"?>
<svg xmlns="http://www.w3.org/2000/svg" version="1.1" width="200" height="200" viewBox="0 0 200 200"><rect x="0" y="0" width="200" height="200" fill="#ffffff"/><g transform="scale(6.897)"><g transform="translate(0,0)"><path fill-rule="evenodd" d="M9 0L9 1L10 1L10 2L8 2L8 3L9 3L9 4L10 4L10 5L9 5L9 6L8 6L8 8L4 8L4 9L3 9L3 8L0 8L0 9L1 9L1 10L0 10L0 11L1 11L1 13L0 13L0 16L1 16L1 17L2 17L2 18L4 18L4 17L3 17L3 16L1 16L1 15L4 15L4 16L5 16L5 15L4 15L4 13L3 13L3 12L2 12L2 11L1 11L1 10L2 10L2 9L3 9L3 11L5 11L5 13L8 13L8 10L4 10L4 9L9 9L9 8L10 8L10 10L9 10L9 11L10 11L10 10L11 10L11 9L12 9L12 8L13 8L13 10L12 10L12 11L11 11L11 12L12 12L12 14L13 14L13 13L14 13L14 11L13 11L13 10L15 10L15 9L16 9L16 10L18 10L18 11L16 11L16 12L15 12L15 13L17 13L17 14L18 14L18 12L19 12L19 13L21 13L21 14L20 14L20 16L22 16L22 18L20 18L20 22L19 22L19 21L18 21L18 20L19 20L19 19L18 19L18 18L17 18L17 17L19 17L19 15L17 15L17 16L16 16L16 18L17 18L17 20L16 20L16 19L12 19L12 20L9 20L9 21L8 21L8 25L9 25L9 26L8 26L8 29L9 29L9 26L10 26L10 27L11 27L11 26L10 26L10 25L9 25L9 24L12 24L12 27L13 27L13 29L14 29L14 28L15 28L15 26L14 26L14 24L15 24L15 25L16 25L16 27L17 27L17 28L16 28L16 29L18 29L18 28L20 28L20 29L26 29L26 27L27 27L27 29L29 29L29 28L28 28L28 27L29 27L29 21L26 21L26 22L25 22L25 20L26 20L26 18L27 18L27 20L28 20L28 19L29 19L29 16L28 16L28 15L29 15L29 12L28 12L28 11L29 11L29 9L28 9L28 10L26 10L26 9L27 9L27 8L26 8L26 9L25 9L25 10L24 10L24 9L23 9L23 8L21 8L21 6L20 6L20 4L19 4L19 3L20 3L20 2L21 2L21 1L20 1L20 0L18 0L18 1L19 1L19 3L18 3L18 5L19 5L19 6L18 6L18 7L17 7L17 6L16 6L16 3L14 3L14 4L13 4L13 3L12 3L12 2L14 2L14 1L15 1L15 2L17 2L17 1L16 1L16 0L14 0L14 1L13 1L13 0L12 0L12 1L11 1L11 0ZM10 5L10 6L9 6L9 7L10 7L10 6L11 6L11 7L12 7L12 6L11 6L11 5ZM13 6L13 7L14 7L14 9L15 9L15 7L16 7L16 8L17 8L17 7L16 7L16 6L15 6L15 7L14 7L14 6ZM19 6L19 7L18 7L18 10L19 10L19 12L20 12L20 11L21 11L21 10L22 10L22 9L21 9L21 10L20 10L20 8L19 8L19 7L20 7L20 6ZM23 10L23 11L24 11L24 14L22 14L22 15L24 15L24 18L23 18L23 20L24 20L24 19L25 19L25 18L26 18L26 17L27 17L27 18L28 18L28 17L27 17L27 14L28 14L28 13L27 13L27 11L26 11L26 10L25 10L25 11L24 11L24 10ZM6 11L6 12L7 12L7 11ZM25 11L25 14L27 14L27 13L26 13L26 11ZM21 12L21 13L22 13L22 12ZM1 13L1 14L3 14L3 13ZM9 13L9 14L6 14L6 15L7 15L7 16L6 16L6 17L5 17L5 18L6 18L6 19L7 19L7 20L5 20L5 19L4 19L4 20L3 20L3 19L1 19L1 18L0 18L0 19L1 19L1 20L0 20L0 21L1 21L1 20L3 20L3 21L7 21L7 20L8 20L8 19L10 19L10 18L11 18L11 17L12 17L12 18L13 18L13 17L15 17L15 16L14 16L14 15L15 15L15 14L14 14L14 15L13 15L13 16L12 16L12 15L10 15L10 13ZM9 15L9 16L8 16L8 18L7 18L7 17L6 17L6 18L7 18L7 19L8 19L8 18L10 18L10 17L11 17L11 16L10 16L10 15ZM25 15L25 16L26 16L26 15ZM9 16L9 17L10 17L10 16ZM21 19L21 20L22 20L22 19ZM12 20L12 21L11 21L11 23L12 23L12 22L13 22L13 20ZM14 20L14 22L15 22L15 23L16 23L16 21L15 21L15 20ZM21 21L21 24L24 24L24 21ZM17 22L17 23L18 23L18 25L20 25L20 24L19 24L19 23L18 23L18 22ZM22 22L22 23L23 23L23 22ZM26 22L26 26L27 26L27 27L28 27L28 24L27 24L27 22ZM22 25L22 27L23 27L23 28L25 28L25 27L24 27L24 26L23 26L23 25ZM13 26L13 27L14 27L14 26ZM17 26L17 27L19 27L19 26ZM20 26L20 27L21 27L21 26ZM10 28L10 29L11 29L11 28ZM0 0L0 7L7 7L7 0ZM1 1L1 6L6 6L6 1ZM2 2L2 5L5 5L5 2ZM22 0L22 7L29 7L29 0ZM23 1L23 6L28 6L28 1ZM24 2L24 5L27 5L27 2ZM0 22L0 29L7 29L7 22ZM1 23L1 28L6 28L6 23ZM2 24L2 27L5 27L5 24Z" fill="#000000"/></g></g></svg>
