<?xml version="1.0" encoding="UTF-8"?>
<svg xmlns="http://www.w3.org/2000/svg" version="1.1" width="200" height="200" viewBox="0 0 200 200"><rect x="0" y="0" width="200" height="200" fill="#ffffff"/><g transform="scale(6.897)"><g transform="translate(0,0)"><path fill-rule="evenodd" d="M11 0L11 1L10 1L10 3L9 3L9 1L8 1L8 3L9 3L9 4L8 4L8 8L6 8L6 9L4 9L4 8L3 8L3 9L4 9L4 11L7 11L7 10L8 10L8 8L9 8L9 5L10 5L10 8L13 8L13 10L12 10L12 14L10 14L10 13L11 13L11 11L8 11L8 12L10 12L10 13L9 13L9 14L6 14L6 13L7 13L7 12L6 12L6 13L5 13L5 12L3 12L3 10L2 10L2 8L0 8L0 9L1 9L1 10L2 10L2 12L1 12L1 11L0 11L0 15L1 15L1 18L0 18L0 19L1 19L1 18L2 18L2 19L3 19L3 20L4 20L4 21L7 21L7 20L6 20L6 19L7 19L7 18L8 18L8 17L10 17L10 18L13 18L13 16L14 16L14 18L15 18L15 16L14 16L14 15L13 15L13 16L12 16L12 14L14 14L14 12L15 12L15 13L16 13L16 14L17 14L17 17L16 17L16 18L17 18L17 19L14 19L14 20L13 20L13 19L12 19L12 20L13 20L13 22L12 22L12 26L10 26L10 25L11 25L11 22L10 22L10 20L9 20L9 19L8 19L8 20L9 20L9 21L8 21L8 23L10 23L10 25L8 25L8 26L10 26L10 27L8 27L8 29L9 29L9 28L10 28L10 27L13 27L13 28L15 28L15 27L13 27L13 25L14 25L14 23L15 23L15 25L17 25L17 26L16 26L16 27L17 27L17 29L18 29L18 28L19 28L19 29L22 29L22 28L23 28L23 29L25 29L25 28L26 28L26 26L25 26L25 25L26 25L26 24L27 24L27 23L28 23L28 25L29 25L29 23L28 23L28 22L29 22L29 21L27 21L27 20L29 20L29 17L28 17L28 15L29 15L29 14L27 14L27 13L29 13L29 12L28 12L28 10L29 10L29 9L28 9L28 8L26 8L26 9L25 9L25 8L22 8L22 10L21 10L21 9L20 9L20 10L18 10L18 9L17 9L17 8L18 8L18 7L19 7L19 6L20 6L20 8L21 8L21 5L19 5L19 3L21 3L21 1L20 1L20 0L18 0L18 1L20 1L20 2L19 2L19 3L18 3L18 2L17 2L17 3L18 3L18 5L17 5L17 4L16 4L16 3L15 3L15 2L16 2L16 0L14 0L14 1L15 1L15 2L14 2L14 5L13 5L13 0ZM10 3L10 5L11 5L11 7L12 7L12 5L11 5L11 3ZM14 5L14 6L13 6L13 8L15 8L15 7L16 7L16 6L17 6L17 7L18 7L18 6L19 6L19 5L18 5L18 6L17 6L17 5L16 5L16 6L15 6L15 5ZM14 6L14 7L15 7L15 6ZM6 9L6 10L7 10L7 9ZM9 9L9 10L10 10L10 9ZM15 9L15 10L14 10L14 11L15 11L15 12L16 12L16 9ZM24 9L24 10L22 10L22 11L23 11L23 12L24 12L24 17L23 17L23 16L20 16L20 15L21 15L21 13L22 13L22 15L23 15L23 13L22 13L22 12L21 12L21 10L20 10L20 11L19 11L19 12L18 12L18 10L17 10L17 12L18 12L18 15L19 15L19 16L20 16L20 17L18 17L18 19L20 19L20 17L21 17L21 18L22 18L22 17L23 17L23 19L21 19L21 20L24 20L24 19L25 19L25 23L27 23L27 22L26 22L26 20L27 20L27 18L28 18L28 17L27 17L27 15L26 15L26 13L27 13L27 12L26 12L26 13L25 13L25 11L24 11L24 10L25 10L25 9ZM26 9L26 10L28 10L28 9ZM2 12L2 13L1 13L1 14L2 14L2 13L3 13L3 12ZM19 12L19 14L20 14L20 13L21 13L21 12ZM4 13L4 14L3 14L3 15L2 15L2 16L3 16L3 15L4 15L4 14L5 14L5 18L4 18L4 17L2 17L2 18L4 18L4 19L5 19L5 18L7 18L7 17L6 17L6 16L8 16L8 15L6 15L6 14L5 14L5 13ZM25 15L25 17L26 17L26 15ZM10 16L10 17L11 17L11 16ZM25 18L25 19L26 19L26 18ZM0 20L0 21L1 21L1 20ZM17 20L17 21L19 21L19 23L18 23L18 22L16 22L16 21L14 21L14 22L13 22L13 23L14 23L14 22L15 22L15 23L17 23L17 24L18 24L18 25L19 25L19 26L18 26L18 27L19 27L19 26L20 26L20 24L19 24L19 23L20 23L20 20ZM21 21L21 24L24 24L24 21ZM22 22L22 23L23 23L23 22ZM22 26L22 27L23 27L23 28L25 28L25 27L23 27L23 26ZM28 26L28 27L27 27L27 29L28 29L28 27L29 27L29 26ZM0 0L0 7L7 7L7 0ZM1 1L1 6L6 6L6 1ZM2 2L2 5L5 5L5 2ZM22 0L22 7L29 7L29 0ZM23 1L23 6L28 6L28 1ZM24 2L24 5L27 5L27 2ZM0 22L0 29L7 29L7 22ZM1 23L1 28L6 28L6 23ZM2 24L2 27L5 27L5 24Z" fill="#000000"/></g></g></svg>
