<?xml version="1.0" encoding="UTF-8"?>
<svg xmlns="http://www.w3.org/2000/svg" version="1.1" width="200" height="200" viewBox="0 0 200 200"><rect x="0" y="0" width="200" height="200" fill="#ffffff"/><g transform="scale(6.897)"><g transform="translate(0,0)"><path fill-rule="evenodd" d="M8 0L8 1L9 1L9 2L8 2L8 5L9 5L9 4L12 4L12 3L11 3L11 2L13 2L13 5L12 5L12 7L11 7L11 5L10 5L10 10L9 10L9 11L8 11L8 15L7 15L7 14L6 14L6 15L7 15L7 16L4 16L4 15L5 15L5 14L3 14L3 12L2 12L2 11L3 11L3 9L4 9L4 11L5 11L5 12L4 12L4 13L7 13L7 12L6 12L6 11L7 11L7 10L8 10L8 9L9 9L9 8L8 8L8 9L7 9L7 8L6 8L6 9L7 9L7 10L5 10L5 9L4 9L4 8L0 8L0 9L2 9L2 11L0 11L0 12L1 12L1 13L0 13L0 14L3 14L3 15L1 15L1 17L3 17L3 16L4 16L4 17L5 17L5 18L4 18L4 19L2 19L2 20L1 20L1 21L8 21L8 22L9 22L9 25L8 25L8 29L10 29L10 28L9 28L9 27L10 27L10 26L9 26L9 25L11 25L11 24L10 24L10 23L12 23L12 26L13 26L13 27L11 27L11 29L14 29L14 28L15 28L15 27L14 27L14 26L16 26L16 27L17 27L17 26L18 26L18 27L19 27L19 25L18 25L18 24L17 24L17 25L15 25L15 22L13 22L13 19L12 19L12 20L11 20L11 22L9 22L9 20L10 20L10 19L11 19L11 18L13 18L13 17L15 17L15 18L14 18L14 19L17 19L17 20L14 20L14 21L16 21L16 22L17 22L17 23L18 23L18 22L17 22L17 21L19 21L19 24L20 24L20 25L23 25L23 26L25 26L25 25L26 25L26 26L28 26L28 27L27 27L27 29L28 29L28 27L29 27L29 25L28 25L28 24L26 24L26 22L27 22L27 23L28 23L28 22L29 22L29 21L27 21L27 18L28 18L28 15L29 15L29 13L27 13L27 12L26 12L26 11L28 11L28 12L29 12L29 11L28 11L28 10L29 10L29 8L28 8L28 10L26 10L26 11L25 11L25 13L27 13L27 14L24 14L24 12L23 12L23 13L22 13L22 12L21 12L21 11L22 11L22 10L23 10L23 11L24 11L24 10L25 10L25 9L27 9L27 8L24 8L24 10L23 10L23 9L22 9L22 8L21 8L21 9L20 9L20 8L18 8L18 7L19 7L19 6L20 6L20 7L21 7L21 6L20 6L20 3L21 3L21 2L20 2L20 3L19 3L19 2L18 2L18 3L17 3L17 4L16 4L16 3L15 3L15 1L14 1L14 2L13 2L13 0L12 0L12 1L9 1L9 0ZM16 0L16 2L17 2L17 0ZM18 0L18 1L21 1L21 0ZM18 3L18 6L17 6L17 7L16 7L16 5L15 5L15 8L17 8L17 7L18 7L18 6L19 6L19 3ZM8 6L8 7L9 7L9 6ZM13 6L13 10L12 10L12 11L11 11L11 13L9 13L9 16L10 16L10 17L13 17L13 16L15 16L15 17L16 17L16 18L17 18L17 17L18 17L18 19L20 19L20 20L21 20L21 19L23 19L23 20L24 20L24 19L25 19L25 20L26 20L26 19L25 19L25 18L26 18L26 17L27 17L27 15L25 15L25 17L24 17L24 14L22 14L22 13L21 13L21 12L20 12L20 11L21 11L21 10L22 10L22 9L21 9L21 10L18 10L18 9L17 9L17 10L18 10L18 11L16 11L16 9L15 9L15 10L14 10L14 6ZM12 11L12 16L13 16L13 15L14 15L14 14L16 14L16 13L15 13L15 12L16 12L16 11L15 11L15 12L14 12L14 11ZM18 11L18 12L17 12L17 14L18 14L18 15L19 15L19 16L23 16L23 15L22 15L22 14L21 14L21 13L20 13L20 12L19 12L19 11ZM18 12L18 14L19 14L19 12ZM20 14L20 15L21 15L21 14ZM10 15L10 16L11 16L11 15ZM7 16L7 17L6 17L6 18L5 18L5 20L7 20L7 19L6 19L6 18L7 18L7 17L8 17L8 16ZM21 17L21 18L22 18L22 17ZM0 18L0 19L1 19L1 18ZM9 18L9 19L8 19L8 20L9 20L9 19L10 19L10 18ZM21 21L21 24L24 24L24 21ZM12 22L12 23L13 23L13 22ZM22 22L22 23L23 23L23 22ZM13 25L13 26L14 26L14 25ZM20 26L20 29L22 29L22 28L25 28L25 29L26 29L26 28L25 28L25 27L22 27L22 26ZM13 27L13 28L14 28L14 27ZM18 28L18 29L19 29L19 28ZM0 0L0 7L7 7L7 0ZM1 1L1 6L6 6L6 1ZM2 2L2 5L5 5L5 2ZM22 0L22 7L29 7L29 0ZM23 1L23 6L28 6L28 1ZM24 2L24 5L27 5L27 2ZM0 22L0 29L7 29L7 22ZM1 23L1 28L6 28L6 23ZM2 24L2 27L5 27L5 24Z" fill="#000000"/></g></g></svg>
